<?xml version="1.0" encoding="UTF-8" standalone="no"?>
<svg
   xmlns:dc="http://purl.org/dc/elements/1.1/"
   xmlns:cc="http://creativecommons.org/ns#"
   xmlns:rdf="http://www.w3.org/1999/02/22-rdf-syntax-ns#"
   xmlns:svg="http://www.w3.org/2000/svg"
   xmlns="http://www.w3.org/2000/svg"
   xmlns:sodipodi="http://sodipodi.sourceforge.net/DTD/sodipodi-0.dtd"
   xmlns:inkscape="http://www.inkscape.org/namespaces/inkscape"
   inkscape:export-ydpi="576"
   inkscape:export-xdpi="576"
   inkscape:export-filename="D:\Project Real\Januari 1\Export\extended line\png\10 - Stairs.png"
   width="64pt"
   height="64pt"
   viewBox="0 0 22.577778 22.577778"
   version="1.1"
   id="svg831"
   inkscape:version="1.0 (4035a4fb49, 2020-05-01)"
   sodipodi:docname="01 - Bed.svg">
  <defs
     id="defs825">
    <pattern
       id="EMFhbasepattern"
       patternUnits="userSpaceOnUse"
       width="6"
       height="6"
       x="0"
       y="0" />
    <pattern
       id="EMFhbasepattern-9"
       patternUnits="userSpaceOnUse"
       width="6"
       height="6"
       x="0"
       y="0" />
    <pattern
       id="EMFhbasepattern-0"
       patternUnits="userSpaceOnUse"
       width="6"
       height="6"
       x="0"
       y="0" />
    <pattern
       id="EMFhbasepattern-7"
       patternUnits="userSpaceOnUse"
       width="6"
       height="6"
       x="0"
       y="0" />
    <pattern
       id="EMFhbasepattern-2"
       patternUnits="userSpaceOnUse"
       width="6"
       height="6"
       x="0"
       y="0" />
    <pattern
       id="EMFhbasepattern-98"
       patternUnits="userSpaceOnUse"
       width="6"
       height="6"
       x="0"
       y="0" />
    <pattern
       id="EMFhbasepattern-6"
       patternUnits="userSpaceOnUse"
       width="6"
       height="6"
       x="0"
       y="0" />
    <pattern
       id="EMFhbasepattern-01"
       patternUnits="userSpaceOnUse"
       width="6"
       height="6"
       x="0"
       y="0" />
    <pattern
       id="EMFhbasepattern-07"
       patternUnits="userSpaceOnUse"
       width="6"
       height="6"
       x="0"
       y="0" />
    <pattern
       id="EMFhbasepattern-8"
       patternUnits="userSpaceOnUse"
       width="6"
       height="6"
       x="0"
       y="0" />
    <pattern
       id="EMFhbasepattern-4"
       patternUnits="userSpaceOnUse"
       width="6"
       height="6"
       x="0"
       y="0" />
    <pattern
       id="EMFhbasepattern-40"
       patternUnits="userSpaceOnUse"
       width="6"
       height="6"
       x="0"
       y="0" />
    <pattern
       id="EMFhbasepattern-08"
       patternUnits="userSpaceOnUse"
       width="6"
       height="6"
       x="0"
       y="0" />
    <pattern
       id="EMFhbasepattern-04"
       patternUnits="userSpaceOnUse"
       width="6"
       height="6"
       x="0"
       y="0" />
    <pattern
       id="EMFhbasepattern-014"
       patternUnits="userSpaceOnUse"
       width="6"
       height="6"
       x="0"
       y="0" />
    <pattern
       id="EMFhbasepattern-27"
       patternUnits="userSpaceOnUse"
       width="6"
       height="6"
       x="0"
       y="0" />
    <pattern
       id="EMFhbasepattern-09"
       patternUnits="userSpaceOnUse"
       width="6"
       height="6"
       x="0"
       y="0" />
    <pattern
       id="EMFhbasepattern-5"
       patternUnits="userSpaceOnUse"
       width="6"
       height="6"
       x="0"
       y="0" />
    <pattern
       id="EMFhbasepattern-018"
       patternUnits="userSpaceOnUse"
       width="6"
       height="6"
       x="0"
       y="0" />
  </defs>
  <sodipodi:namedview
     id="base"
     pagecolor="#ffffff"
     bordercolor="#666666"
     borderopacity="1.0"
     inkscape:pageopacity="0.0"
     inkscape:pageshadow="2"
     inkscape:zoom="6.2578125"
     inkscape:cx="42.666667"
     inkscape:cy="42.666667"
     inkscape:document-units="pt"
     inkscape:current-layer="layer1"
     showgrid="false"
     units="pt"
     inkscape:window-width="1366"
     inkscape:window-height="705"
     inkscape:window-x="-8"
     inkscape:window-y="-8"
     inkscape:window-maximized="1"
     inkscape:pagecheckerboard="true"
     inkscape:showpageshadow="false"
     inkscape:object-paths="true"
     inkscape:snap-intersection-paths="true"
     inkscape:snap-smooth-nodes="true"
     inkscape:snap-midpoints="true"
     showguides="true"
     inkscape:snap-bbox="true"
     inkscape:bbox-nodes="true"
     inkscape:snap-nodes="false"
     inkscape:snap-global="true"
     inkscape:document-rotation="0">
    <inkscape:grid
       type="xygrid"
       id="grid1378" />
    <sodipodi:guide
       position="0.97013831,21.607643"
       orientation="78.000048,0"
       id="guide1380"
       inkscape:locked="false" />
    <sodipodi:guide
       position="0.97013831,0.97013129"
       orientation="0,78.000005"
       id="guide1382"
       inkscape:locked="false" />
    <sodipodi:guide
       position="21.607639,0.97013129"
       orientation="-78.000048,0"
       id="guide1384"
       inkscape:locked="false" />
    <sodipodi:guide
       position="21.607639,21.607643"
       orientation="0,-78.000005"
       id="guide1386"
       inkscape:locked="false" />
  </sodipodi:namedview>
  <metadata
     id="metadata828">
    <rdf:RDF>
      <cc:Work
         rdf:about="">
        <dc:format>image/svg+xml</dc:format>
        <dc:type
           rdf:resource="http://purl.org/dc/dcmitype/StillImage" />
        <dc:title></dc:title>
      </cc:Work>
    </rdf:RDF>
  </metadata>
  <g
     inkscape:label="Icon"
     inkscape:groupmode="layer"
     id="layer1"
     transform="translate(0,-274.42223)">
    <path
       d="m 3.6144133,275.71077 c -0.7332645,0 -1.3354972,0.59898 -1.3354972,1.33225 0,0.24394 0.071804,0.47053 0.1877127,0.66807 H 4.761547 c 0.1159109,-0.19754 0.1877127,-0.42413 0.1877127,-0.66807 0,-0.73327 -0.6015852,-1.33225 -1.3348464,-1.33225 z m 15.2862087,0 c -0.733265,0 -1.334848,0.59898 -1.334848,1.33225 0,0.2439 0.07119,0.47055 0.187062,0.66807 h 2.29557 c 0.115911,-0.19754 0.187713,-0.42413 0.187713,-0.66807 0,-0.73327 -0.602233,-1.33225 -1.335497,-1.33225 z m -6.869769,2.65991 c -0.242998,0.001 -0.497837,0.005 -0.770403,0.008 -2.0478808,0.0156 -4.0119171,-0.0725 -5.9468439,1.91884 v 4.04038 H 7.443624 c 0.031102,-0.57023 0.1336615,-1.11894 0.2978643,-1.59165 l -0.2007509,-0.24897 c -0.11455,-0.14359 -0.091537,-0.35274 0.051491,-0.46799 0.051325,-0.0419 0.1139459,-0.0675 0.1798906,-0.0736 0.1107587,-0.0101 0.2190216,0.0366 0.2887407,0.12322 l 0.1883635,0.23529 c 0.9044186,-0.19802 1.9311358,-0.30177 2.9642968,-0.30177 1.041828,0 2.080175,0.10569 2.990371,0.30698 l 0.254194,-0.25288 c 0.05997,-0.059 0.140066,-0.0933 0.224214,-0.0959 0.0922,-0.003 0.18138,0.0329 0.246373,0.0984 0.129423,0.13016 0.129423,0.34042 0,0.47058 l -0.231383,0.23138 c 0.163036,0.47188 0.260052,1.01124 0.288738,1.56688 h 2.216056 v -4.043 c -2.361547,-1.81025 -3.470231,-1.93431 -5.17123,-1.92406 z m -10.0856486,0.008 v 0.66741 h 3.337767 v -0.66741 z m 15.2881626,0 v 0.66741 h 3.335161 v -0.66741 z m -14.6513741,1.33484 v 4.60613 c 0.8132652,-0.003 1.306975,-0.004 2.0641899,-0.004 l -0.013682,-4.60222 z m 15.2946811,0 c -0.01608,1.53777 -0.0066,3.07604 -0.0066,4.61395 0.694904,9.1e-4 1.435237,0.003 2.06419,0.005 v -4.61852 z m -6.663153,2.97343 c -0.997215,0 -1.9707742,0.11023 -2.8182984,0.2959 -0.321491,0.93555 -0.3509544,2.39299 0.00267,3.37753 1.6860214,0.3691 3.9156054,0.36746 5.6072694,0.003 0.343091,-0.96543 0.334165,-2.42999 0,-3.38209 -0.841774,-0.1819 -1.804732,-0.2933 -2.791578,-0.2933 z m -0.510997,1.15235 c 0.08524,9.9e-4 0.166863,0.0345 0.228125,0.0938 l 0.284827,0.27441 0.284179,-0.27375 c 0.06077,-0.0588 0.141606,-0.0923 0.226166,-0.0938 0.09259,-0.003 0.181822,0.0347 0.246373,0.10103 0.128506,0.13316 0.124122,0.34546 -0.0097,0.47319 l -0.266576,0.25746 0.266576,0.2568 c 0.132173,0.12746 0.136534,0.33774 0.0097,0.47058 -0.127488,0.13364 -0.339281,0.13832 -0.472539,0.0101 l -0.28483,-0.2744 -0.284176,0.2744 c -0.133157,0.12851 -0.345455,0.12411 -0.473193,-0.0101 -0.126756,-0.13284 -0.122393,-0.34313 0.0097,-0.47058 l 0.26723,-0.25746 -0.26723,-0.25746 c -0.133895,-0.12772 -0.138283,-0.34002 -0.0097,-0.47319 0.05915,-0.061 0.139338,-0.0971 0.224212,-0.10102 0.0069,-4.3e-4 0.01391,-6.7e-4 0.02086,-6.7e-4 z m -3.2628111,1.14517 c -1.6300812,-0.003 -3.3345367,-0.003 -4.8727102,0.003 l -0.9470371,3.49876 0.2229095,-0.0737 c 0.6837083,-0.22607 1.3996099,-0.3298 2.116329,-0.3298 H 18.65816 c 0.723591,0 1.436979,0.13417 2.10851,0.39107 l 0.142088,0.0541 -0.956815,-3.53005 c -1.658551,-0.003 -3.346731,-0.004 -4.963961,-0.006 -0.02536,0.5475 -0.118269,1.08211 -0.280263,1.5558 l 0.205963,0.16098 c 0.146366,0.1139 0.171835,0.32522 0.05671,0.4706 -0.11388,0.14448 -0.323204,0.16955 -0.467981,0.056 l -0.275052,-0.21574 c -1.825819,0.40791 -4.181253,0.40928 -6.0100658,0.004 l -0.2502838,0.22487 c -0.1361876,0.12348 -0.3466096,0.11364 -0.4705867,-0.0222 -0.1248155,-0.13646 -0.1148704,-0.34838 0.022158,-0.47255 l 0.2092205,-0.18836 c -0.1705988,-0.48522 -0.2645587,-1.02784 -0.2880886,-1.57957 z m -3.4805088,3.76534 c -0.6512016,0 -1.2967099,0.096 -1.9071085,0.29786 l -0.6413537,0.21074 -0.3017722,1.11651 c -0.026463,0.0978 -0.04726,0.20411 -0.064527,0.31415 l 20.4450493,0.0156 c -0.0234,-0.11048 -0.05036,-0.21952 -0.07951,-0.32718 l -0.28548,-1.05393 -0.593771,-0.22683 c -0.596449,-0.22817 -1.231826,-0.34739 -1.872565,-0.34739 z m -2.96820803,2.60712 c -0.0113136,0.22559 -0.0165517,0.4513 -0.0208564,0.66767 l 20.63667533,0.0163 c 0.0044,-0.22864 -0.0098,-0.45263 -0.02022,-0.66677 z m 0.77040663,1.34137 0.00267,2.68272 c -3.4e-6,0.1792 0.1481846,0.33047 0.3545686,0.33045 H 2.806267 c 0.206404,0 0.3545719,-0.15123 0.3545687,-0.33045 v -2.65797 z m 18.9537753,0.0126 -1.399373,0.015 0.0026,2.63319 c 0,0.1792 0.148188,0.33047 0.354568,0.33046 h 0.68763 c 0.206401,0 0.354569,-0.15126 0.354569,-0.33046 z m -16.8869824,0.0177 v 1.05653 c 5.2349142,1.63449 9.5359524,1.66224 14.8227924,0 l -0.0026,-1.05653 z"
       style="color:#000000;font-style:normal;font-variant:normal;font-weight:normal;font-stretch:normal;font-size:medium;line-height:normal;font-family:sans-serif;font-variant-ligatures:normal;font-variant-position:normal;font-variant-caps:normal;font-variant-numeric:normal;font-variant-alternates:normal;font-variant-east-asian:normal;font-feature-settings:normal;font-variation-settings:normal;text-indent:0;text-align:start;text-decoration:none;text-decoration-line:none;text-decoration-style:solid;text-decoration-color:#000000;letter-spacing:normal;word-spacing:normal;text-transform:none;writing-mode:lr-tb;direction:ltr;text-orientation:mixed;dominant-baseline:auto;baseline-shift:baseline;text-anchor:start;white-space:normal;shape-padding:0;shape-margin:0;inline-size:0;clip-rule:nonzero;display:inline;overflow:visible;visibility:visible;isolation:auto;mix-blend-mode:normal;color-interpolation:sRGB;color-interpolation-filters:linearRGB;solid-color:#000000;solid-opacity:1;vector-effect:none;fill:#000000;fill-opacity:1;fill-rule:nonzero;stroke:none;stroke-width:0.529167;stroke-linecap:butt;stroke-linejoin:miter;stroke-miterlimit:4;stroke-dasharray:none;stroke-dashoffset:0;stroke-opacity:1;color-rendering:auto;image-rendering:auto;shape-rendering:auto;text-rendering:auto;enable-background:accumulate;stop-color:#000000"
       id="path821" />
  </g>
</svg>
